HIERARCHY
ROOT SpineBase
{
  OFFSET 0.000000 0.000000 0.000000
  CHANNELS 6 Xposition Yposition Zposition Zrotation Xrotation Yrotation
  JOINT SpineMid
  {
    OFFSET 0.000000 32.638820 0.000000
    CHANNELS 3 Zrotation Xrotation Yrotation
    JOINT SpineShoulder
    {
      OFFSET -0.004662 24.287393 -0.954228
      CHANNELS 3 Zrotation Xrotation Yrotation
      JOINT Neck
      {
        OFFSET 0.002391 8.052768 -0.696480
        CHANNELS 3 Zrotation Xrotation Yrotation
        JOINT Head
        {
          OFFSET -0.163689 10.894169 6.309673
          CHANNELS 3 Zrotation Xrotation Yrotation
          End Site
          {
            OFFSET 0 0 0
          }
        }
      }
      JOINT ShoulderLeft
      {
        OFFSET -22.341752 -7.226877 47.930789
        CHANNELS 3 Zrotation Xrotation Yrotation
        JOINT ElbowLeft
        {
          OFFSET -7.781964 -26.345383 -1.528842
          CHANNELS 3 Zrotation Xrotation Yrotation
          JOINT WristLeft
          {
            OFFSET -1.095273 -26.997092 -6.018773
            CHANNELS 3 Zrotation Xrotation Yrotation
            JOINT HandLeft
            {
              OFFSET 1.045309 -23.004927 -5.109840
              CHANNELS 3 Zrotation Xrotation Yrotation
              JOINT HandTipLeft
              {
                OFFSET -0.135808 -7.461159 -2.145037
                CHANNELS 3 Zrotation Xrotation Yrotation
                End Site
                {
                  OFFSET 0 0 0
                }
              }
              JOINT ThumbLeft
              {
                OFFSET 5.187801 -1.365036 -2.390291
                CHANNELS 3 Zrotation Xrotation Yrotation
                End Site
                {
                  OFFSET 0 0 0
                }
              }
            }
          }
        }
      }
      JOINT ShoulderRight
      {
        OFFSET 14.864076 -7.090073 -6.333485
        CHANNELS 3 Zrotation Xrotation Yrotation
        JOINT ElbowRight
        {
          OFFSET 5.750897 -26.443091 2.555340
          CHANNELS 3 Zrotation Xrotation Yrotation
          JOINT WristRight
          {
            OFFSET 1.340425 -21.563914 1.027158
            CHANNELS 3 Zrotation Xrotation Yrotation
            JOINT HandRight
            {
              OFFSET 0.549842 -6.719593 2.938013
              CHANNELS 3 Zrotation Xrotation Yrotation
              JOINT HandTipRight
              {
                OFFSET 0.609619 -6.454035 -1.385315
                CHANNELS 3 Zrotation Xrotation Yrotation
                End Site
                {
                  OFFSET 0 0 0
                }
              }
              JOINT ThumbRight
              {
                OFFSET -1.201660 -0.960210 -4.266030
                CHANNELS 3 Zrotation Xrotation Yrotation
                End Site
                {
                  OFFSET 0 0 0
                }
              }
            }
          }
        }
      }
    }
  }
  JOINT HipLeft
  {
    OFFSET -3.407191 1.572910 -3.137519
    CHANNELS 3 Zrotation Xrotation Yrotation
    JOINT KneeLeft
    {
      OFFSET -1.520352 -39.493316 -10.246732
      CHANNELS 3 Zrotation Xrotation Yrotation
      JOINT AnkleLeft
      {
        OFFSET 2.344735 -35.850083 -3.736971
        CHANNELS 3 Zrotation Xrotation Yrotation
        JOINT FootLeft
        {
          OFFSET -7.311829 -2.929644 -8.401398
          CHANNELS 3 Zrotation Xrotation Yrotation
          End Site
          {
            OFFSET 0 0 0
          }
        }
      }
    }
  }
  JOINT HipRight
  {
    OFFSET 3.392365 1.466066 -4.593841
    CHANNELS 3 Zrotation Xrotation Yrotation
    JOINT KneeRight
    {
      OFFSET 12.156274 -37.778336 -9.393860
      CHANNELS 3 Zrotation Xrotation Yrotation
      JOINT AnkleRight
      {
        OFFSET 3.578474 -38.720234 -4.466722
        CHANNELS 3 Zrotation Xrotation Yrotation
        JOINT FootRight
        {
          OFFSET -6.442727 -3.280195 -7.379327
          CHANNELS 3 Zrotation Xrotation Yrotation
          End Site
          {
            OFFSET 0 0 0
          }
        }
      }
    }
  }
}
MOTION
Frames: 12
Frame Time: 0.033333
0.643695 85.262666 287.588874 -0.000000 0.000000 12.088910 -0.000000 0.000000 -12.088910 -0.000000 0.000000 0.000000 -0.000000 0.000000 0.000000 0.000000 0.000000 0.000000 -0.000000 0.000000 0.000000 -0.000000 0.000000 0.000000 -0.000000 0.000000 0.000000 -0.000000 0.000000 0.000000 0.000000 0.000000 0.000000 0.000000 0.000000 0.000000 -0.000000 0.000000 0.000000 -0.000000 0.000000 0.000000 -0.000000 0.000000 0.000000 -0.000000 0.000000 0.000000 0.000000 0.000000 0.000000 0.000000 0.000000 0.000000 -0.000000 0.000000 -12.088910 -0.000000 0.000000 0.000000 -0.000000 0.000000 0.000000 0.000000 0.000000 0.000000 -0.000000 0.000000 -12.088910 -0.000000 0.000000 0.000000 -0.000000 0.000000 0.000000 0.000000 0.000000 0.000000
0.646136 85.281422 287.602307 0.005998 -0.012687 12.089122 -0.003208 0.013662 -12.089121 -0.000000 0.000000 0.000000 -0.000000 0.000000 0.000000 0.000000 0.000000 0.000000 -0.000000 0.000000 0.000000 -0.000000 0.000000 0.000000 -0.000000 0.000000 0.000000 -0.000000 0.000000 0.000000 0.000000 0.000000 0.000000 0.000000 0.000000 0.000000 -0.000000 0.000000 0.000000 -0.000000 0.000000 0.000000 -0.000000 0.000000 0.000000 -0.000000 0.000000 0.000000 0.000000 0.000000 0.000000 0.000000 0.000000 0.000000 -0.003208 0.013662 -12.089121 -0.000000 0.000000 0.000000 10.384576 -12.225891 4.038782 0.000000 0.000000 0.000000 -0.003208 0.013662 -12.089121 -0.000000 0.000000 0.000000 -0.000000 0.000000 0.000000 0.000000 0.000000 0.000000
0.649971 85.295723 287.617689 0.014234 -0.025764 12.088846 -0.008523 0.028174 -12.088841 -0.000000 0.000000 0.000000 -0.000000 0.000000 0.000000 0.000000 0.000000 0.000000 -1.075125 0.196980 0.006039 1.075110 -0.197058 -0.002341 0.076762 0.977792 0.026674 -0.077228 -0.977756 -0.027988 0.000000 0.000000 0.000000 0.000000 0.000000 0.000000 -0.000000 0.000000 0.000000 -0.000000 0.000000 0.000000 -0.747154 1.276681 -0.215050 0.971137 -0.121005 0.295048 0.000000 0.000000 0.000000 0.000000 0.000000 0.000000 -0.008523 0.028174 -12.088841 -0.000000 0.000000 0.000000 24.926958 -25.409813 12.287718 0.000000 0.000000 0.000000 -0.008523 0.028174 -12.088841 -0.000000 0.000000 0.000000 -0.000000 0.000000 0.000000 0.000000 0.000000 0.000000
0.655203 85.305568 287.635019 0.024706 -0.039227 12.088052 -0.015943 0.043531 -12.088038 -0.000000 0.000000 0.000000 -0.383538 0.679107 0.233824 0.000000 0.000000 0.000000 -1.342725 0.307476 -0.009264 1.342794 -0.307175 0.016467 0.007651 1.155556 0.050618 -0.202889 -2.371122 0.021090 0.000000 0.000000 0.000000 0.000000 0.000000 0.000000 -0.000000 0.000000 0.000000 -0.000000 0.000000 0.000000 -1.039337 1.762626 -0.296426 1.351222 -0.275389 0.406703 0.000000 0.000000 0.000000 0.000000 0.000000 0.000000 -0.015943 0.043531 -12.088038 -0.000000 0.000000 0.000000 39.807411 -34.255777 22.634989 0.000000 0.000000 0.000000 -0.015943 0.043531 -12.088038 -0.000000 0.000000 0.000000 0.454072 -0.797145 0.560495 0.000000 0.000000 0.000000
0.661830 85.310959 287.654298 0.037411 -0.053072 12.086705 -0.025469 0.059729 -12.086674 -0.000000 0.000000 0.000000 -0.487043 0.742862 0.295315 0.000000 0.000000 0.000000 -1.430741 0.426074 -0.037358 1.431057 -0.425008 0.047986 -0.127611 1.174829 0.082853 -0.229928 -2.931880 0.041060 0.000000 0.000000 0.000000 0.000000 0.000000 0.000000 -0.000000 0.000000 0.000000 -0.000000 0.000000 0.000000 -1.275921 2.143064 -0.361938 1.657875 -0.505978 0.490237 0.000000 0.000000 0.000000 0.000000 0.000000 0.000000 -0.025469 0.059729 -12.086674 -0.000000 0.000000 0.000000 48.614409 -37.691064 29.309725 0.000000 0.000000 0.000000 -0.025469 0.059729 -12.086674 -0.000000 0.000000 0.000000 1.594021 -2.096893 0.603278 0.000000 0.000000 0.000000
0.669853 85.311895 287.675525 0.052345 -0.067293 12.084767 -0.037097 0.076760 -12.084711 -0.000000 0.000000 0.000000 -0.578216 0.726007 0.348213 0.000000 0.000000 0.000000 -1.339310 0.552710 -0.078783 1.340131 -0.550717 0.091684 -0.336483 1.040298 0.124830 -0.230348 -3.401739 0.064268 0.000000 0.000000 0.000000 0.000000 0.000000 0.000000 -0.000000 0.000000 0.000000 -0.000000 0.000000 0.000000 -1.455902 2.415350 -0.412465 1.888966 -0.818782 0.543201 0.000000 0.000000 0.000000 0.000000 0.000000 0.000000 -0.037097 0.076760 -12.084711 -0.000000 0.000000 0.000000 48.272195 -37.559613 29.113538 0.000000 0.000000 0.000000 -0.037097 0.076760 -12.084711 -0.000000 0.000000 0.000000 3.389643 -4.091680 0.619075 0.000000 0.000000 0.000000
0.678306 85.309319 287.706629 0.076971 -0.092397 12.155709 -0.055790 0.106533 -12.155596 -0.000000 0.000000 0.000000 -0.739523 0.654923 0.440970 0.000000 0.000000 0.000000 -0.936804 0.902225 -0.204180 0.940129 -0.898760 0.218930 -0.880165 0.446389 0.219104 -0.287324 -2.221729 0.127611 0.000000 0.000000 0.000000 0.000000 0.000000 0.000000 -0.000000 0.000000 0.000000 -0.000000 0.000000 0.000000 -1.637251 2.155299 -0.513544 1.714972 0.228173 0.781543 0.000000 0.000000 0.000000 0.000000 0.000000 0.000000 -0.055790 0.106533 -12.155596 -0.000000 0.000000 0.000000 22.950924 -23.878652 11.618408 0.000000 0.000000 0.000000 -0.055790 0.106533 -12.155596 -0.000000 0.000000 0.000000 3.619988 -4.323116 0.569048 0.000000 0.000000 0.000000
0.692773 85.300225 287.736237 0.102165 -0.109229 12.119804 -0.076954 0.128245 -12.119621 -0.000000 0.000000 0.000000 -0.821478 0.491621 0.485545 0.000000 0.000000 0.000000 -0.812711 0.698224 -0.153754 0.814642 -0.695970 0.163654 -0.979080 0.381512 0.237989 -0.074512 -5.309498 0.106773 0.000000 0.000000 0.000000 0.000000 0.000000 0.000000 -0.000000 0.000000 0.000000 -0.000000 0.000000 0.000000 -1.647788 1.610835 -0.569696 1.781501 -0.606435 0.683845 0.000000 0.000000 0.000000 0.000000 0.000000 0.000000 -0.076954 0.128245 -12.119621 -0.000000 0.000000 0.000000 10.720946 -12.701400 4.906329 0.000000 0.000000 0.000000 -0.076954 0.128245 -12.119621 -0.000000 0.000000 0.000000 8.649627 -9.800780 0.826474 0.000000 0.000000 0.000000
0.705108 85.293007 287.763508 0.117400 -0.121106 12.059473 -0.089507 0.142961 -12.059237 -0.000000 0.000000 0.000000 -0.822745 0.236125 0.481243 0.000000 0.000000 0.000000 -0.002948 0.919526 -0.271294 0.520151 -0.122384 0.128819 -2.177271 -1.375982 0.456113 0.029524 -4.166984 0.151154 0.000000 0.000000 0.000000 0.000000 0.000000 0.000000 -0.000000 0.000000 0.000000 -0.000000 0.000000 0.000000 -1.424879 1.968628 -0.441210 1.736671 -0.309272 0.584721 0.000000 0.000000 0.000000 0.000000 0.000000 0.000000 -0.089507 0.142961 -12.059237 -0.000000 0.000000 0.000000 6.177539 -7.577568 2.393198 0.000000 0.000000 0.000000 -0.089507 0.142961 -12.059237 -0.000000 0.000000 0.000000 8.019769 -9.044894 0.535403 0.000000 0.000000 0.000000
0.713104 85.278796 287.772184 0.124094 -0.114985 12.033128 -0.097396 0.138329 -12.032886 -0.000000 0.000000 0.000000 -0.750724 -0.085721 0.433188 0.000000 0.000000 0.000000 0.540128 0.831594 -0.281179 0.273276 0.057178 0.061750 -2.908091 -2.147602 0.566453 -0.184924 -2.516887 0.267359 0.000000 0.000000 0.000000 0.000000 0.000000 0.000000 -0.000000 0.000000 0.000000 -0.000000 0.000000 0.000000 -1.448960 2.303799 -0.420015 2.019818 -3.521598 0.273306 0.000000 0.000000 0.000000 0.000000 0.000000 0.000000 -0.097396 0.138329 -12.032886 -0.000000 0.000000 0.000000 0.879537 -1.126098 0.311699 0.000000 0.000000 0.000000 -0.097396 0.138329 -12.032886 -0.000000 0.000000 0.000000 13.544207 -14.871634 1.137709 0.000000 0.000000 0.000000
0.722223 85.250250 287.776266 0.126119 -0.103007 11.896303 -0.102177 0.126793 -11.896077 -0.000000 0.000000 0.000000 -0.000000 0.000000 0.000000 0.000000 0.000000 0.000000 0.936129 0.586614 -0.232887 0.130789 0.327383 -0.049103 -3.314919 -2.750913 0.614723 0.348908 -2.678309 0.160629 0.000000 0.000000 0.000000 0.000000 0.000000 0.000000 -0.000000 0.000000 0.000000 -0.000000 0.000000 0.000000 -1.685213 2.312350 -0.518829 2.156393 -4.206366 0.338820 0.000000 0.000000 0.000000 0.000000 0.000000 0.000000 -0.102177 0.126793 -11.896077 -0.000000 0.000000 0.000000 -0.000000 0.000000 0.000000 0.000000 0.000000 0.000000 -0.102177 0.126793 -11.896077 -0.000000 0.000000 0.000000 22.837895 -23.868817 3.087371 0.000000 0.000000 0.000000
0.730652 85.225480 287.775159 0.129688 -0.087013 11.715753 -0.109318 0.111534 -11.715548 -0.000000 0.000000 0.000000 -0.000000 0.000000 0.000000 0.000000 0.000000 0.000000 1.094842 0.388279 -0.182416 0.057133 0.505965 -0.119241 -3.414005 -2.936617 0.622991 0.722505 -2.996623 0.068539 0.000000 0.000000 0.000000 0.000000 0.000000 0.000000 -0.000000 0.000000 0.000000 -0.000000 0.000000 0.000000 -1.714102 3.828006 -0.384973 2.200214 -5.934821 0.243869 0.000000 0.000000 0.000000 0.000000 0.000000 0.000000 -0.109318 0.111534 -11.715548 -0.000000 0.000000 0.000000 6.709600 -8.058232 2.078778 0.000000 0.000000 0.000000 -0.109318 0.111534 -11.715548 -0.000000 0.000000 0.000000 19.695990 -20.908500 1.837980 0.000000 0.000000 0.000000
